<?xml version="1.0" encoding="UTF-8"?>
<svg width="110.55mm" height="85.263mm" version="1.1" viewBox="0 0 110.55 85.263" xml:space="preserve" xmlns="http://www.w3.org/2000/svg" xmlns:xlink="http://www.w3.org/1999/xlink"><defs><linearGradient id="a" x2="110.55" y1="6.0048" y2="77.508" gradientUnits="userSpaceOnUse"><stop stop-color="#2972d6" offset="0"/><stop stop-color="#660b74" offset="1"/></linearGradient></defs><path d="m74.516 0c-3.357 0-6.5358 0.56159-9.5157 1.6872-2.9384 1.0901-5.5318 2.6338-7.7577 4.6271-2.1974 1.9644-3.9496 4.3191-5.2441 7.0409l-0.002067 0.002067v0.004134c-1.2727 2.7127-1.9063 5.6818-1.9063 8.8672 0 3.0294 0.6194 5.7186 1.8867 8.0135l0.004134 0.005684 0.004135 0.008268c1.0168 1.7661 2.545 3.1855 4.3279 4.4142-1.781 0.71468-3.4239 1.5243-4.7873 2.5275l-0.002067 0.002068-0.004134 0.003617c-1.1166 0.83745-1.9989 1.8351-2.8593 2.8458-0.27593-0.30249-0.53757-0.62151-0.83406-0.9002-1.812-1.7381-3.8816-3.0445-6.1836-3.8985-2.2838-0.8472-4.6505-1.2738-7.0823-1.2738-1.3822 0-2.7006 0.10983-3.9532 0.33021-0.15469 0.0235-0.29756 0.084501-0.45114 0.11162l25.565-28.725h-16.149c-2.0165 0-3.8973 0.3761-5.609 1.1369l-0.002067 0.0020671-0.004134 0.002067c-1.6434 0.74695-2.9782 1.6831-3.9667 2.8298l-0.013953 0.013953-18.639 23.603c-1.8455 2.3073-3.4809 4.5654-4.9067 6.7753l-0.0036173 0.004134-0.0020671 0.004134c-1.3964 2.22-2.5822 4.4637-3.5528 6.7283l-0.0020671 0.003618-0.002067 0.002067c-0.93615 2.2324-1.6571 4.5041-2.1621 6.8125v0.008268l-0.0020671 0.006201c-0.47052 2.3165-0.70487 4.7205-0.70487 7.2073 0 3.5376 0.50485 6.8108 1.527 9.8046l0.0020671 0.002067v0.002067c1.0232 2.9599 2.5334 5.5422 4.5238 7.7168l0.002067 0.004134 0.0036174 0.002067c2.029 2.1765 4.5064 3.8738 7.3985 5.0819l0.002067 0.002067h0.002067c2.9453 1.215 6.2744 1.8149 9.9648 1.8149 2.7507 0 5.3816-0.32369 7.8853-0.9679l2.881-11.637c0.94074-3.7506 4.0477-5.626 9.3209-5.626h8.7824c0.007938 0 0.014868 0.001932 0.022738 0.002067 11.413-0.001118 31.912-0.002067 31.912-0.002067 0.20893-0.17241 0.41585-0.34674 0.61805-0.52607l0.004135-0.004134c0.23358-0.20449 0.4606-0.41443 0.6842-0.62735-6.3843-0.1273-12.768-0.37054-19.153-0.29249-2.5766 0.0315-1.9551 0.93478-3.3259 1.2754-2.842-0.42616-4.592 0.87003-5.2539-1.417-6.109-0.09185-17.918-0.084054-23.046-0.17053 5.149-1 9.9992-4.4407 15.34-4.4307h0.00155c0.44145 0.0015 0.88033 0.051167 1.3198 0.088367 2.9494 0.3812 6.205 1.6805 7.661 4.4204 0.2006 0.5955 2.9856-0.86092 4.0421 0.41238 0.1816-1.1147 2.0458-2.1616 3.4489-2.3502 5.426-1.134 10.9 0.45737 16.265 1.2227 1.1004 0.26545 2.2578 0.37822 3.3926 0.55346 1.744-1.8157 3.1525-3.91 4.2132-6.2684l0.002067-0.006202c1.3658-3.0003 2.0428-6.3286 2.0428-9.9508 0-3.3268-0.75522-6.2853-2.2851-8.8046l-0.002067-0.002067c-1.2695-2.134-3.386-3.7606-5.9743-5.0824 3.0118-1.5728 5.5006-3.5731 7.1148-6.2224l0.002067-0.002067c1.9199-3.0998 2.8675-6.7974 2.8675-11.017 0-2.5071-0.48773-4.8589-1.465-7.0218l-0.002067-0.003618c-0.9415-2.1842-2.2966-4.0847-4.0447-5.6684l-0.004134-0.0036174c-1.7225-1.6201-3.7958-2.8805-6.1934-3.7796-2.4142-0.90532-5.0823-1.3513-7.9845-1.3513l0.001033-0.0020671zm-1.3379 12.32c0.99868 0 1.774 0.18346 2.3694 0.50591l0.007751 0.004135 0.006201 0.003617c0.6805 0.35389 1.1926 0.79418 1.5797 1.3364 0.40304 0.56424 0.70632 1.231 0.90434 2.0231v0.004134l0.002067 0.003617c0.2017 0.77795 0.30282 1.6053 0.30282 2.4882 0 1.5308-0.15275 2.9404-0.4532 4.2323-0.29578 1.2719-0.76151 2.3517-1.3885 3.2639l-0.002067 0.002584-0.002067 0.003617c-0.58809 0.86814-1.3246 1.5385-2.25 2.0433-0.88957 0.48524-1.9815 0.74414-3.3243 0.74414-1.059 0-1.8809-0.18957-2.5058-0.51005-0.63602-0.37531-1.1194-0.83-1.4785-1.3942-0.38008-0.59725-0.65575-1.2812-0.82631-2.0738v-0.002584c-0.17788-0.86044-0.26717-1.7347-0.26717-2.6272 0-1.3716 0.13585-2.6911 0.40824-3.962 0.26615-1.242 0.68885-2.2909 1.2537-3.1683l0.002067-0.002584c0.5914-0.90043 1.3325-1.6024 2.2598-2.1363 0.87973-0.50652 1.997-0.78133 3.4024-0.78135l-5.17e-4 -5.17e-4zm9.7751 18.716c0 1.1554 0.93646 2.0919 2.0919 2.0919-1.1554 0-2.0919 0.93698-2.0919 2.0924 0-1.1554-0.93698-2.0924-2.0924-2.0924 1.1554-1e-4 2.0924-0.93646 2.0924-2.0919zm-4.0158 3.8091c0 2.2177 1.7981 4.0152 4.0158 4.0153-2.2177 0-4.0158 1.7986-4.0158 4.0163 0-2.2177-1.7976-4.0163-4.0153-4.0163 2.2177-1e-4 4.0153-1.7976 4.0153-4.0153zm-10.444 1.9399c0.40593 1.297 0.8126 2.594 1.1581 3.9088 0.10282 0.34357 0.19344 0.69148 0.2775 1.0413 0.99351 0.029997 1.8194 0.17653 2.4794 0.41444 0.23651-0.92158 0.63595-1.776 1.3854-2.4841-0.024523 1.0281-0.0784 2.0556-0.18345 3.0773 0.36703 0.24354 0.67764 0.52226 0.93741 0.83974 0.31583 0.38602 0.56903 0.82662 0.76171 1.3327 0.04282-0.28495 0.079627-0.57105 0.1049-0.85938l0.001034-5.17e-4c0.041148 0.43535 0.050071 0.87644 0.047026 1.3183 0.032696 0.11422 0.063727 0.23082 0.09095 0.3514l0.002067 0.013952 0.004134 0.013436c0.23162 0.8976 0.35347 1.918 0.35347 3.0629 0 1.7176-0.18521 3.2977-0.54674 4.7439l-0.002067 0.009818-0.002067 0.008268c-0.019085 0.08328-0.04106 0.1632-0.061495 0.24495 2.7381-2.226 4.4595-5.8246 3.7217-9.3731 1.6565 1.2327 2.9699 3.4788 1.5565 5.4152-1.4186 2.0089-3.3997 3.4503-5.4927 4.7212-0.15784 0.49099-0.343 0.95123-0.555 1.3829 1.1566-0.3648 2.3094-0.73928 3.4396-1.1777 3.8262-1.3178 7.0345-4.318 8.3649-8.1706 0.64281-2.5077 0.44575 0.37395 0.16485 1.4966-0.6291 3.951-3.3544 7.5779-7.2605 8.7576-2.1133 0.80112-4.3667 1.1882-6.6032 1.6139-0.27267 0.23884-0.56532 0.45743-0.87643 0.65784 2.5827-0.40738 5.2107-0.61648 7.7752-1.0899 3.015-0.4498 6.5265-1.2895 7.9633-4.3077h5.17e-4c0.2367 2.7969-0.5922 6.3162-3.6587 7.1918-3.9619 0.85863-7.9553-0.59988-11.952-0.37879-3.493 0.1373-7.7155 0.91163-9.5157 4.2917 0.18289-2.2532 2.3832-3.6268 4.2731-4.4654-0.17777-0.007721-0.34827-0.021599-0.51521-0.03824-0.51626 0.24374-1.0235 0.51421-1.5146 0.82889-1.3131 0.2864-3.1266 5.0737-2.4815 1.9926 0.4907-1.2287 1.1962-2.3131 2.019-3.313-0.14932-0.075623-0.29102-0.15613-0.4284-0.23978-0.82667 1.0989-1.5631 2.2536-2.0681 3.5553-0.49894 1.8905-0.4044 0.45094-0.1912-0.52658 0.13922-1.4731 0.41523-2.9195 0.79737-4.3377-0.18318-0.25176-0.3497-0.52024-0.49971-0.80615-0.39367 2.1175-0.67182 4.2531-0.72864 6.4198-0.27103-0.3132-0.048528-3.327-0.062528-4.609 0.062754-1.0846 0.1316-2.182 0.21084-3.2815-0.2321-0.9333-0.35295-1.9489-0.35295-3.0551 0-3.9609 0.75782-6.7962 2.0996-8.5587l0.002067-0.002067c0.28142-0.36726 0.59602-0.69534 0.94258-0.98805 0.28365-0.61199 0.59255-1.215 0.94103-1.803l5.17e-4 5.17e-4c5.75e-4 0.38957-0.015262 0.77895-0.039791 1.1679 0.89444-0.51548 1.9693-0.84369 3.253-0.98444 0.26916-1.6598 0.42423-3.3401 0.46354-5.0245zm-23.009 8.199c0.068845 4.24e-4 0.13742 0.00131 0.20619 0.0031v0.001034c1.1336-0.0062 2.2613 0.25061 3.3212 0.64285 5.366 2.185 8.1893 7.7557 10.139 12.873 0.60468 1.7576 1.4254 4.0798 1.5524 5.6358-2.0829-5.105-5.5159-9.5461-9.402-13.413-2.8964-3.2419-7.5361-5.1558-11.828-3.8287 1.7136-1.2845 3.8768-1.9273 6.011-1.9141zm-17.996 2.2856h5.16e-4c2.7104 0 4.6658 0.84504 6.1402 2.5704l0.006201 0.006201 0.005685 0.007752c1.5052 1.6934 2.2929 4.0497 2.2929 7.2321 0 2.0476-0.31642 3.902-0.94154 5.58-0.63382 1.7013-1.4759 3.145-2.5213 4.3537l-0.004134 0.006201-0.003617 0.005684c-1.0119 1.2078-2.189 2.1417-3.5507 2.8226l-0.004134 0.002067-0.003617 0.002067c-1.314 0.67299-2.6862 1.002-4.1605 1.002-2.8257 0-4.6939-0.82866-5.9433-2.4727-5.68e-4 -7.5e-4 -0.001467-6.21e-4 -0.002067-0.002067-1.2565-1.7009-1.9177-3.973-1.9177-6.92 0-2.2391 0.2893-4.2303 0.85163-5.9846 3.6e-4 -1e-3 -3.6e-4 -0.003134 0-0.004134 0.60256-1.7691 1.3952-3.2428 2.3668-4.4411l0.004134-0.005685 0.003618-0.004134c0.97992-1.2413 2.0824-2.1632 3.3223-2.8003 1.2794-0.63938 2.6166-0.9555 4.0587-0.9555v-5.17e-4zm19.517 3.8375c0.086416-8.46e-4 0.17318 4.48e-4 0.26045 0.003617h5.17e-4c1.8852-0.0085 3.6454 0.90471 5.131 1.9947 3.655 2.882 6.53 6.8464 8.0626 11.235-1.7603-2.9618-3.947-5.7284-6.7329-7.7913-3.6067-2.9702-9.03-3.8847-13.134-1.3849 1.4701-2.1034 3.7336-4.0314 6.4125-4.0576zm0.22686 4.4772c0.1708-0.001883 0.34123 0.001271 0.51056 0.009302h5.16e-4c5.0759 0.1864 9.4486 3.8346 11.931 8.0615 0.1753 0.585-1.5673-2.1225-2.3161-2.5135-4.463-4.3323-11.497-5.1725-17.13-2.8288 1.7503-1.578 4.4422-2.7003 7.0042-2.7285zm0.44597 2.5311c0.10936-9.16e-4 0.21862-4.85e-4 0.32814 0.001033 4.267 0.0325 8.8322 1.93 11.236 5.5738-2.0005-2.7202-5.2101-4.5038-8.568-4.8137-4.3755-0.5553-8.3541 1.7647-12.635 2.0743 2.9433-1.6202 6.2486-2.8071 9.6387-2.8355zm2.5962 1.5792c0.076059-6.7e-4 0.15209-5.76e-4 0.22841 0h5.17e-4c1.7141 0.047068 3.4246 0.46669 4.9584 1.2376 2.4197 1.2902-1.4762-0.75044-2.2412-0.71314-4.9555-1.2295-9.7212 1.2092-14.333 2.6639-0.4952 0.16082-3.3644 1.0263-2.2252 0.57102 4.5344-1.2337 8.8204-3.7173 13.612-3.7595zm20.409 1.7348c0.08397 6.8e-5 0.16764 9.05e-4 0.25115 0.002067h0.001033c3.9159 0.0787 7.6655 1.2858 11.488 1.988-2.1121-0.19796-4.1766-0.75656-6.2622-1.1379-4.233-0.7704-9.2171-1.3829-12.8 1.5663 1.914-1.8835 4.719-2.4206 7.322-2.4185zm11.816 2.0019c0.13579 0.0257-0.13688 0.0221 0 0zm17.068 0.17673c-0.48231 0-0.72347 0.21963-0.72347 0.65887 0 1.0077 0.40048 1.8345 1.2015 2.4805 0.80967 0.64595 1.8561 0.96893 3.1393 0.96893 1.2919 0 2.3384-0.32298 3.1394-0.96893 0.801-0.646 1.2015-1.4728 1.2015-2.4805 0-0.43924-0.23685-0.65887-0.71055-0.65887h-0.98185c-0.43064 0-0.73208 0.21963-0.90434 0.65887-0.2756 0.70627-0.85694 1.0594-1.7441 1.0594-0.87851 0-1.4599-0.3531-1.7441-1.0594-0.18086-0.43924-0.48231-0.65887-0.90433-0.65887h-0.96894zm-13.643 5.2974c-2.3685 0-4.2197 0.63685-5.5547 1.9115-1.335 1.2661-2.003 3.0839-2.003 5.4524 0 2.3599 0.66321 4.168 1.9895 5.4255v5.17e-4c1.3263 1.2575 3.1781 1.8862 5.5552 1.8862 4.7112 0.0086 7.0668-1.223 7.0668-3.6949 0-0.23254-0.077517-0.42202-0.23254-0.56844-0.14642-0.15503-0.3359-0.23254-0.56844-0.23254h-1.9249c-0.6201 0.008613-1.1412 0.27131-1.5632 0.78807-0.42204 0.51676-1.2058 0.77515-2.3513 0.77515-1.1455 0-1.9809-0.24116-2.5063-0.72347-0.51677-0.48233-0.81821-1.2532-0.90434-2.3125h9.7281c0.23254 0 0.42203-0.073205 0.56844-0.21962 0.15503-0.15503 0.23254-0.34882 0.23254-0.58136v-0.73639c0-2.3083-0.66321-4.0782-1.9895-5.3098-1.3263-1.2403-3.1738-1.8604-5.5423-1.8604zm-42.943 0.25786c-3.669 0-5.8308 1.3048-6.4854 3.9145l-2.3254 9.3922c-0.025764 0.077415-0.038757 0.16764-0.038757 0.27078 0 0.10335 0.055984 0.22823 0.16795 0.37465 0.12058 0.1378 0.29714 0.20671 0.52968 0.20671h2.6484c0.25838 0 0.49954-0.086129 0.72347-0.25838 0.23255-0.18087 0.38758-0.41341 0.46509-0.69763l2.0283-8.1778c0.31867-1.2661 1.0809-1.8991 2.2867-1.8991h2.4288v10.245c0 0.22393 0.073205 0.41341 0.21962 0.56844 0.15503 0.14641 0.34451 0.21962 0.56844 0.21962h2.8939c0.22393 0 0.4091-0.073212 0.55552-0.21962 0.15503-0.15503 0.23254-0.34451 0.23254-0.56844v-12.57c0-0.23255-0.077518-0.42203-0.23254-0.56844-0.14642-0.15503-0.3316-0.23254-0.55552-0.23254h-6.1107zm63.149 5.17e-4c-0.26699 0-0.5426 0.090435-0.82682 0.2713-0.28422 0.17226-0.49523 0.39188-0.63304 0.65888l-4.5475 8.3587v-8.4873c0-0.23254-0.07751-0.42203-0.23254-0.56844-0.14641-0.15503-0.33589-0.23254-0.56844-0.23254h-2.7001c-0.22393 0-0.41341 0.077511-0.56844 0.23254-0.14642 0.14641-0.21962 0.3359-0.21962 0.56844v12.57c0 0.23254 0.073205 0.42202 0.21962 0.56844 0.14641 0.14641 0.33589 0.21962 0.56844 0.21962h3.6303c0.26697 0 0.5426-0.090434 0.82682-0.2713 0.28422-0.18948 0.49523-0.40911 0.63303-0.65887l4.5475-8.3328v8.4749c0 0.22393 0.07321 0.41341 0.21963 0.56844 0.14641 0.14641 0.33589 0.21962 0.56844 0.21962h2.7001c0.23255 0 0.42203-0.073213 0.56844-0.21962 0.15503-0.14642 0.23254-0.3359 0.23254-0.56844v-12.57c0-0.23255-0.07751-0.42203-0.23254-0.56844-0.14641-0.15503-0.33589-0.23254-0.56844-0.23254h-3.6174zm-44.532 5.17e-4c-0.22393 0-0.41341 0.077511-0.56844 0.23254-0.14641 0.14641-0.21962 0.3359-0.21962 0.56844v12.57l-5.17e-4 5.17e-4c0 0.23254 0.073212 0.42202 0.21962 0.56844 0.14642 0.14641 0.3359 0.21962 0.56844 0.21962h14.922c0.23254 0 0.42202-0.073211 0.56844-0.21962 0.15503-0.14642 0.23254-0.3359 0.23254-0.56844v-1.5374c0-0.23255-0.077517-0.42202-0.23254-0.56844-0.14642-0.15503-0.3359-0.23254-0.56844-0.23254h-1.2661v-10.232c0-0.23254-0.073212-0.42203-0.21962-0.56844-0.14642-0.15503-0.3359-0.23254-0.56844-0.23254h-2.8939c-0.22393 0-0.41341 0.077511-0.56844 0.23254-0.14642 0.14641-0.21962 0.3359-0.21962 0.56844v10.232h-5.5035v-10.232c0-0.23254-0.073205-0.42203-0.21962-0.56844-0.14641-0.15503-0.3359-0.23254-0.56844-0.23254h-2.8939zm-7.7003 0.32246c-0.22393 0-0.41342 0.073205-0.56844 0.21962-0.14642 0.14641-0.21962 0.3359-0.21962 0.56844v12.26c0 0.23254 0.073205 0.42202 0.21962 0.56844 0.14641 0.14641 0.33589 0.21962 0.56844 0.21962h2.8939c0.22393 0 0.4091-0.073213 0.55552-0.21962 0.15503-0.14642 0.23254-0.3359 0.23254-0.56844v-12.26c0-0.22393-0.073213-0.40911-0.21962-0.55552-0.14642-0.15503-0.3359-0.23254-0.56844-0.23254h-2.8939zm32.015 2.3508c1.912 0 2.9106 1.0163 2.9967 3.0489h-6.0074c0.1034-2.0326 1.1073-3.0489 3.0107-3.0489z" fill="url(#a)" style="-inkscape-stroke:none"/></svg>

