<?xml version="1.0" encoding="UTF-8"?>
<svg width="110.55mm" height="85.263mm" version="1.1" viewBox="0 0 110.55 85.263" xml:space="preserve" xmlns="http://www.w3.org/2000/svg"><path d="m74.516 0c-3.357 0-6.5358 0.56155-9.5157 1.6872-2.9384 1.0901-5.5318 2.6338-7.7577 4.6271-2.1974 1.9644-3.9496 4.3191-5.2441 7.0409l-0.002067 0.002067v0.004134c-1.2727 2.7127-1.9063 5.6818-1.9063 8.8672 0 3.0294 0.61939 5.7186 1.8867 8.0135l0.004134 0.005684 0.004135 0.008268c1.0168 1.7661 2.545 3.1855 4.3279 4.4142-1.781 0.71468-3.4239 1.5243-4.7873 2.5275l-0.002067 0.002068-0.004134 0.003617c-1.1166 0.83745-1.9989 1.8351-2.8593 2.8458-0.27593-0.30249-0.53757-0.6215-0.83406-0.9002-1.812-1.7381-3.8816-3.0445-6.1836-3.8985-2.2838-0.8472-4.6505-1.2738-7.0823-1.2738-1.3822 0-2.7006 0.10983-3.9532 0.33021-0.15469 0.0235-0.29756 0.0845-0.45114 0.11162l25.565-28.725h-16.149c-2.0165 0-3.8973 0.37612-5.609 1.1369l-0.002067 0.0020671-0.004134 0.002067c-1.6434 0.74695-2.9782 1.6831-3.9667 2.8298l-0.013953 0.013953-18.639 23.603c-1.8455 2.3073-3.4804 4.5654-4.9062 6.7753l-0.0036173 0.004134-0.0020671 0.004134c-1.3964 2.22-2.5822 4.4637-3.5528 6.7283l-0.0020671 0.003618-0.002067 0.002067c-0.93615 2.2324-1.6571 4.5041-2.1621 6.8125v0.008268l-0.0020671 0.006201c-0.47052 2.3165-0.70487 4.7205-0.70487 7.2073 0 3.5376 0.50481 6.8108 1.527 9.8046l0.0020671 0.002067v0.002067c1.0232 2.9599 2.5334 5.5422 4.5238 7.7168l0.002067 0.004134 0.0036174 0.002067c2.029 2.1765 4.5064 3.8738 7.3985 5.0819l0.002067 0.002067h0.002067c2.9453 1.215 6.2744 1.8144 9.9648 1.8144 2.7507 0 5.3811-0.32369 7.8848-0.9679l2.881-11.637c0.94074-3.7506 4.0477-5.626 9.3209-5.626h8.7824c0.007938 0 0.014867 0.001932 0.022737 0.002067 11.413-0.001118 31.912-0.002067 31.912-0.002067 0.20893-0.17241 0.41585-0.34674 0.61805-0.52607l0.004135-0.004134c2.3928-2.0948 4.2627-4.6333 5.5898-7.584l0.002067-0.006201c1.3658-3.0003 2.0428-6.3286 2.0428-9.9508 0-3.3268-0.75518-6.2853-2.2851-8.8046l-0.002067-0.002067c-1.2695-2.134-3.386-3.7606-5.9743-5.0824 3.0118-1.5728 5.5006-3.5731 7.1148-6.2224l0.002067-0.002067c1.9199-3.0998 2.8675-6.797 2.8675-11.017 0-2.5071-0.4877-4.8589-1.465-7.0218l-0.002067-0.003618c-0.9415-2.1842-2.2966-4.0847-4.0447-5.6684l-0.004134-0.0036174c-1.7225-1.6201-3.7958-2.8805-6.1934-3.7796-2.4142-0.90532-5.0823-1.3513-7.9845-1.3513l0.001033-0.0020671zm-1.3379 12.32c0.99868 0 1.774 0.18345 2.3694 0.50591l0.007751 0.004135 0.006201 0.003617c0.6805 0.35389 1.1926 0.79422 1.5797 1.3364 0.40304 0.56424 0.70632 1.231 0.90434 2.0231v0.004134l0.002067 0.003617c0.2017 0.77795 0.30282 1.6053 0.30282 2.4882 0 1.5308-0.15275 2.9404-0.4532 4.2323-0.29578 1.2719-0.76146 2.3517-1.3885 3.2639l-0.002067 0.002584-0.002067 0.003617c-0.58809 0.86814-1.3246 1.5385-2.25 2.0433-0.88957 0.48524-1.9815 0.74414-3.3243 0.74414-1.059 0-1.8809-0.18957-2.5058-0.51005-0.63602-0.37531-1.1194-0.82997-1.4785-1.3942-0.38008-0.59725-0.65575-1.2812-0.82631-2.0738v-0.002584c-0.17788-0.86044-0.26717-1.7347-0.26717-2.6272 0-1.3716 0.13585-2.6911 0.40824-3.962 0.26615-1.242 0.68888-2.2909 1.2537-3.1683l0.002067-0.002584c0.5914-0.90043 1.3325-1.6024 2.2598-2.1363 0.87973-0.50652 1.997-0.78133 3.4024-0.78135l-5.17e-4 -5.17e-4zm-3.6349 29.408c1.2826 0 2.3089 0.18303 3.0804 0.5023l0.006201 0.002067 0.003618 0.002067c0.83163 0.33267 1.4502 0.78076 1.9141 1.3477 0.47377 0.57905 0.81026 1.2773 1.0056 2.1425l0.002067 0.013952 0.004134 0.013436c0.23162 0.8976 0.35347 1.918 0.35347 3.0629 0 1.7176-0.18521 3.2977-0.54674 4.7439l-0.002067 0.009818-0.002067 0.008268c-0.32696 1.4267-0.85218 2.6281-1.5684 3.6308-0.71126 0.99575-1.6061 1.7652-2.7228 2.3378l-0.003617 0.002067-0.004134 0.002068c-1.0477 0.55141-2.3544 0.84749-3.9589 0.84749-1.1999 0-2.1712-0.19254-2.9414-0.53485-0.76642-0.3867-1.3727-0.87724-1.8516-1.4867-0.49209-0.65829-0.86903-1.4306-1.1271-2.3415-0.23243-0.93387-0.35347-1.9497-0.35347-3.0567 0-3.9609 0.7578-6.7962 2.0996-8.5587l0.002067-0.002067c1.3636-1.7795 3.458-2.6877 6.6115-2.6877l-5.17e-4 -0.001034zm-42.055 5.5413h5.16e-4c2.7104 0 4.6658 0.84505 6.1402 2.5704l0.006201 0.006201 0.005685 0.007752c1.5052 1.6934 2.2929 4.0497 2.2929 7.2321 0 2.0476-0.31642 3.902-0.94154 5.58-0.63382 1.7013-1.4759 3.145-2.5213 4.3537l-0.004134 0.006201-0.003617 0.005684c-1.0119 1.2078-2.189 2.1417-3.5507 2.8226l-0.004134 0.002067-0.003617 0.002067c-1.314 0.67299-2.6862 1.002-4.1605 1.002-2.8257 0-4.6939-0.82864-5.9433-2.4727-5.68e-4 -7.5e-4 -0.001467-6.21e-4 -0.002067-0.002067-1.2565-1.7009-1.9177-3.973-1.9177-6.92 0-2.2391 0.2893-4.2302 0.85163-5.9846 3.6e-4 -1e-3 -3.6e-4 -0.003134 0-0.004134 0.60256-1.7691 1.3952-3.2428 2.3668-4.4411l0.004134-0.005685 0.003618-0.004134c0.97992-1.2413 2.0824-2.1632 3.3223-2.8003 1.2794-0.63938 2.6166-0.9555 4.0587-0.9555v-5.17e-4z" fill="#113b69" style="-inkscape-stroke:none"/><path d="m34.17 82.47 2.3254-9.3922q0.98185-3.9145 6.4854-3.9145h6.1107q0.33589 0 0.55552 0.23255 0.23254 0.21962 0.23254 0.56844v12.57q0 0.3359-0.23254 0.56844-0.21963 0.21962-0.55552 0.21962h-2.8939q-0.3359 0-0.56844-0.21962-0.21963-0.23254-0.21963-0.56844v-10.245h-2.4288q-1.8087 0-2.2867 1.8991l-2.0283 8.1778q-0.11627 0.42633-0.46509 0.69763-0.3359 0.25838-0.72347 0.25838h-2.6484q-0.34881 0-0.52968-0.2067-0.16795-0.21963-0.16795-0.37465 0-0.15503 0.0388-0.27131z" fill="#113b69" stop-color="#000000" stroke-linecap="round" stroke-width=".2204" style="shape-inside:url(#rect8277);white-space:pre"/><path d="m53.109 82.535v-12.26q0-0.34881 0.21963-0.56843 0.23254-0.21963 0.56844-0.21963h2.8939q0.34881 0 0.56844 0.23255 0.21962 0.21962 0.21962 0.55551v12.26q0 0.34881-0.23254 0.56844-0.21963 0.21962-0.55552 0.21962h-2.8939q-0.34882 0-0.56844-0.21962-0.21963-0.21963-0.21963-0.56844z" fill="#113b69" stop-color="#000000" stroke-linecap="round" stroke-width=".2204" style="shape-inside:url(#rect8277);white-space:pre"/><path d="m60.809 82.535v-12.57q0-0.34882 0.21962-0.56844 0.23255-0.23255 0.56845-0.23255h2.8939q0.34881 0 0.56843 0.23255 0.21963 0.21962 0.21963 0.56844v10.232h5.5035v-10.232q0-0.34882 0.21963-0.56844 0.23254-0.23255 0.56844-0.23255h2.8939q0.34881 0 0.56844 0.23255 0.21962 0.21962 0.21962 0.56844v10.232h1.2661q0.34882 0 0.56845 0.23254 0.23254 0.21963 0.23254 0.56845v1.5374q0 0.34881-0.23254 0.56844-0.21963 0.21962-0.56845 0.21962h-14.922q-0.34882 0-0.56845-0.21962-0.21962-0.21963-0.21962-0.56844z" fill="#113b69" stop-color="#000000" stroke-linecap="round" stroke-width=".2204" style="shape-inside:url(#rect8277);white-space:pre"/><path d="m80.356 81.695q-1.9895-1.8862-1.9895-5.426 0-3.5528 2.0025-5.4519 2.0025-1.912 5.5552-1.912 3.5528 0 5.5423 1.8604 1.9895 1.8474 1.9895 5.3098v0.7364q0 0.34881-0.23254 0.58135-0.21962 0.21963-0.56844 0.21963h-9.7281q0.12919 1.589 0.90434 2.3125 0.78807 0.72347 2.5063 0.72347t2.3513-0.77515q0.63304-0.77514 1.5632-0.78806h1.9249q0.34882 0 0.56845 0.23254 0.23254 0.21963 0.23254 0.56844 0 3.7078-7.0668 3.6949-3.5657 0-5.5552-1.8862zm2.5451-6.8084h6.0074q-0.12919-3.0489-2.9972-3.0489-2.8551 0-3.0102 3.0489z" fill="#113b69" stop-color="#000000" stroke-linecap="round" stroke-width=".2204" style="shape-inside:url(#rect8277);white-space:pre"/><path d="m95.833 82.535v-12.57q0-0.34882 0.21963-0.56844 0.23254-0.23255 0.56844-0.23255h2.7001q0.34882 0 0.56844 0.23255 0.23255 0.21962 0.23255 0.56844v8.4878l4.5475-8.3587q0.20671-0.40049 0.63304-0.65888 0.42633-0.2713 0.82682-0.2713h3.6174q0.34882 0 0.56844 0.23255 0.23254 0.21962 0.23254 0.56844v12.57q0 0.34881-0.23254 0.56844-0.21962 0.21962-0.56844 0.21962h-2.7001q-0.34882 0-0.56844-0.21962-0.21963-0.23254-0.21963-0.56844v-8.4749l-4.5475 8.3328q-0.2067 0.37465-0.63303 0.65887-0.42633 0.2713-0.82682 0.2713h-3.6303q-0.34882 0-0.56844-0.21962-0.21963-0.21963-0.21963-0.56844zm3.0102-18.268q0-0.65887 0.72347-0.65887h0.96895q0.63303 0 0.90433 0.65887 0.42633 1.0594 1.7441 1.0594 1.3307 0 1.7441-1.0594 0.25838-0.65887 0.90434-0.65887h0.98185q0.71055 0 0.71055 0.65887 0 1.5115-1.2015 2.4805-1.2015 0.96893-3.1394 0.96893-1.9249 0-3.1394-0.96893-1.2015-0.96893-1.2015-2.4805z" fill="#113b69" stop-color="#000000" stroke-linecap="round" stroke-width=".2204" style="shape-inside:url(#rect8277);white-space:pre"/><path d="m68.493 36.785c-0.11672 5.0012-1.2275 9.9672-3.4452 14.463-1.8182 3.5704-3.2028 7.3878-3.5819 11.399-0.2132 0.97753-0.30786 2.4171 0.19108 0.52656 1.6076-4.1441 5.5622-6.801 7.2989-10.894 1.8576-3.5742 1.8301-7.7941 0.69531-11.586-0.34547-1.3148-0.75237-2.6116-1.1583-3.9086zm5.3005 2.8803c-2.205 2.0832-1.4196 5.4168-2.1767 8.0796-0.46689 2.1038-1.3587 4.1241-2.5106 5.9289 1.1704-1.3902 1.8141-3.2764 2.5394-4.8706-0.56525 1.989-1.4257 3.9296-2.8178 5.4816 2.2916-2.3158 3.5759-5.5057 4.3216-8.6443 0.43951-1.9636 0.59628-3.9682 0.64415-5.9752zm-8.9776 1.9603c-3.1468 5.3092-3.4955 11.677-3.8433 17.688 0.014 1.282-0.20863 4.2961 0.0624 4.6093 0.15144-5.7751 1.8774-11.328 3.163-16.912 0.32377-1.7743 0.62064-3.5775 0.61797-5.3848zm10.598 2.4299c-0.35703 4.0726-2.491 7.8393-5.6426 10.415-2.8009 2.6199-6.1682 5.0232-7.6367 8.7004-0.64507 3.0811 1.1687-1.7063 2.4818-1.9927 4.3802-2.8062 9.8593-2.4985 14.623-4.3043 3.9061-1.1797 6.6319-4.8064 7.261-8.7574 0.2809-1.1226 0.47767-4.0042-0.16514-1.4965-1.3304 3.8526-4.5384 6.8527-8.3646 8.1705-3.3144 1.2857-6.8138 2.0562-10.079 3.4763 3.7417-2.2846 6.9557-5.9606 7.3961-10.484 0.16315-1.2281 0.24323-2.498 0.12702-3.7275zm3.6081 0.39354c0.74291 3.573-1.0062 7.1982-3.7774 9.4204-0.98964 1.0096-3.3362 2.3928-3.7428 2.7834 3.2535-1.8823 6.8543-3.6415 9.0767-6.7887 1.4134-1.9364 0.10004-4.1825-1.5565-5.4152zm-33.332 0.53799c-2.2006-0.0573-4.4479 0.58478-6.2168 1.9107 4.2921-1.3271 8.9316 0.58693 11.828 3.8288 3.8861 3.867 7.3192 8.308 9.4021 13.413-0.12699-1.556-0.94792-3.8781-1.5526-5.6357-1.9501-5.1174-4.773-10.688-10.139-12.873-1.0599-0.39225-2.1879-0.6491-3.3215-0.6429zm1.5753 6.1234c-2.7926-0.10142-5.1554 1.8827-6.6729 4.054 4.1041-2.4998 9.5273-1.5852 13.134 1.385 2.7859 2.0629 4.9726 4.8298 6.7329 7.7916-1.5326-4.3891-4.4076-8.354-8.0626-11.236-1.4856-1.09-3.2458-2.003-5.131-1.9945zm40.233 2.6377c-1.4368 3.0183-4.9482 3.858-7.9632 4.3078-4.2658 0.78741-8.7094 0.83358-12.823 2.3007-1.9041 0.83574-4.1543 2.217-4.3393 4.4962 1.8002-3.3801 6.0228-4.1545 9.5158-4.2918 3.9964-0.22109 7.9901 1.2378 11.952 0.37917 3.0665-0.87564 3.895-4.3952 3.6583-7.1921zm-39.756 1.8452c-2.7093-0.1285-5.6476 1.0363-7.5146 2.7195 5.6334-2.3437 12.667-1.5039 17.13 2.8284 0.74879 0.39104 2.4913 3.099 2.316 2.514-2.4825-4.2269-6.8551-7.8755-11.931-8.0619zm0.26357 2.523c-3.5048-0.0486-6.9287 1.1619-9.967 2.8344 4.2808-0.30956 8.2595-2.6293 12.635-2.074 3.3579 0.30985 6.5677 2.0934 8.5682 4.8136-2.4038-3.6438-6.969-5.5415-11.236-5.574zm2.497 1.5783c-4.8845-0.037-9.2345 2.5062-13.841 3.7595-1.1392 0.45523 1.7301-0.41022 2.2253-0.57104 4.6118-1.4547 9.3775-3.8933 14.333-2.6638 0.76501-0.0373 4.6608 2.0032 2.2411 0.71301-1.5339-0.77104-3.2447-1.1906-4.959-1.2376zm-0.40628 1.1449c-5.341-0.01-10.191 3.4308-15.34 4.4308 5.1281 0.08648 16.937 0.07864 23.046 0.17049 0.66199 2.287 2.4119 0.99114 5.2539 1.4173 1.3708-0.3406 0.74935-1.2439 3.326-1.2754 7.5661-0.0925 15.131 0.26761 22.697 0.34936-1.929-0.84856-4.1878-0.80293-6.2442-1.299-5.3656-0.7653-10.839-2.3564-16.265-1.2224-1.4031 0.18864-3.2675 1.2353-3.4491 2.35-1.0565-1.2733-3.8415 0.18348-4.0421-0.41202-1.456-2.7399-4.7114-4.0396-7.6608-4.4208-0.43949-0.0372-0.87865-0.0868-1.3201-0.0883zm20.837 0.59179c-2.6724-0.0372-5.5975 0.47199-7.5732 2.4163 3.5826-2.9492 8.567-2.3366 12.8-1.5662 2.0856 0.38136 4.15 0.93994 6.2621 1.1379-3.8222-0.70218-7.5721-1.9093-11.488-1.988zm11.565 1.9999c-0.13688 0.0221 0.13579 0.0257 0 0z" fill="#fff" stroke-width=".03078"/><path d="m82.953 31.036c0 1.1554-0.93699 2.0918-2.0924 2.0919 1.1554 1e-5 2.0924 0.93698 2.0924 2.0924 0-1.1554 0.93647-2.0924 2.0919-2.0924-1.1554 0-2.0919-0.93647-2.0919-2.0919zm-4.0158 3.8091c0 2.2177-1.7976 4.0152-4.0153 4.0153 2.2177 1e-5 4.0153 1.7981 4.0153 4.0158 1e-5 -2.2177 1.7981-4.0158 4.0158-4.0158-2.2177-1e-5 -4.0158-1.7976-4.0158-4.0153z" fill="#fff" stop-color="#000000" stroke-linecap="round" stroke-width=".16187"/></svg>

